<svg width="75" height="75" viewBox="0 0 75 75" fill="none" xmlns="http://www.w3.org/2000/svg">
<g id="Logo">
<circle id="Ellipse 67" cx="37.5" cy="37.5" r="37" fill="url(#paint0_linear_1686_175)" stroke="white"/>
<path id="A" d="M13.7584 60.908C12.9958 60.9427 12.4064 60.804 11.9904 60.492C11.5398 60.18 11.3838 59.5907 11.5224 58.724C11.5224 58.62 11.5571 58.464 11.6264 58.256C11.6958 58.048 11.7824 57.9093 11.8864 57.84C11.8518 58.7067 11.9558 59.3133 12.1984 59.66C12.4411 60.0067 12.8398 60.18 13.3944 60.18C14.7464 60.18 16.1331 59.7467 17.5544 58.88C19.0104 58.0133 20.4491 56.852 21.8704 55.396C21.5238 55.292 21.0731 55.084 20.5184 54.772C19.9984 54.4947 19.5998 54.2693 19.3224 54.096C17.9358 53.0907 17.2424 51.9293 17.2424 50.612C17.2424 49.6067 17.6931 48.5147 18.5944 47.336C19.4958 46.1573 20.9691 44.9613 23.0144 43.748C24.3318 42.9507 25.8571 42.24 27.5904 41.616C29.3238 40.992 30.9358 40.4893 32.4264 40.108C32.9464 39.1027 33.4491 38.1147 33.9344 37.144C34.4198 36.1733 34.8878 35.2027 35.3384 34.232C35.5118 33.8507 35.8238 33.1227 36.2744 32.048C36.7251 30.9733 37.2278 29.708 37.7824 28.252C38.3371 26.796 38.8571 25.2533 39.3424 23.624C39.8624 21.96 40.2958 20.348 40.6424 18.788C40.9891 17.228 41.1624 15.8413 41.1624 14.628C41.1624 13.4493 40.9544 12.5307 40.5384 11.872C40.1571 11.2133 39.4638 10.884 38.4584 10.884H38.4064C38.1291 10.884 37.9904 10.7973 37.9904 10.624C37.9904 10.4507 38.1638 10.3293 38.5104 10.26C40.1744 10.0867 41.3358 10.4853 41.9944 11.456C42.6531 12.4267 42.9824 13.7093 42.9824 15.304C42.9824 15.5813 42.9651 15.876 42.9304 16.188C42.9304 16.5 42.9131 16.8293 42.8784 17.176C43.0864 17.3493 43.2251 17.644 43.2944 18.06C43.5024 19.1693 43.7104 20.6253 43.9184 22.428C44.1611 24.2307 44.4384 26.2067 44.7504 28.356C45.0624 30.5053 45.4264 32.6893 45.8424 34.908C46.2931 37.092 46.8131 39.1547 47.4024 41.096C48.0264 43.0027 48.7544 44.6147 49.5864 45.932C49.7598 46.2093 50.0024 46.5733 50.3144 47.024C50.6264 47.44 51.0078 47.8213 51.4584 48.168C51.9091 48.5147 52.4118 48.688 52.9664 48.688C53.5558 48.688 54.1624 48.4453 54.7864 47.96C55.3411 47.5093 55.8611 46.8853 56.3464 46.088C56.8318 45.2907 57.2824 44.4413 57.6984 43.54C57.9064 43.1587 58.0971 42.968 58.2704 42.968C58.4438 42.968 58.5651 43.072 58.6344 43.28C58.7384 43.4533 58.7731 43.6267 58.7384 43.8C58.5998 44.2507 58.3051 44.788 57.8544 45.412C57.4384 46.0013 57.0051 46.556 56.5544 47.076C56.1038 47.5613 55.7398 47.908 55.4624 48.116C54.8384 48.6013 54.2318 48.948 53.6424 49.156C53.0878 49.3987 52.5678 49.52 52.0824 49.52C50.9384 49.52 49.9331 49.0867 49.0664 48.22C48.2344 47.3187 47.5064 46.3827 46.8824 45.412C46.0158 44.0253 45.3224 42.2747 44.8024 40.16C44.3171 38.0453 43.9358 35.7573 43.6584 33.296C43.3811 30.8347 43.1558 28.408 42.9824 26.016C42.8438 23.624 42.6878 21.44 42.5144 19.464C42.0984 21.4053 41.5264 23.3987 40.7984 25.444C40.0704 27.4893 39.3251 29.3787 38.5624 31.112C37.8344 32.8107 37.2278 34.128 36.7424 35.064C35.9798 36.624 35.1478 38.184 34.2464 39.744C35.8411 39.3627 37.5051 39.016 39.2384 38.704C40.9718 38.392 42.4971 38.0973 43.8144 37.82H43.9704C44.1091 37.82 44.1784 37.872 44.1784 37.976C44.1784 38.08 44.0918 38.2187 43.9184 38.392C43.7451 38.5653 43.5198 38.6867 43.2424 38.756C41.7518 39.0333 40.1398 39.3627 38.4064 39.744C36.6731 40.0907 35.0438 40.472 33.5184 40.888C31.9238 43.6267 30.3118 46.2267 28.6824 48.688C27.0531 51.1493 25.2678 53.3333 23.3264 55.24C24.6438 55.656 26.3251 55.864 28.3704 55.864H28.4744C28.7518 55.864 28.8904 55.9333 28.8904 56.072C28.8904 56.28 28.6824 56.384 28.2664 56.384C27.2958 56.4187 26.3424 56.3667 25.4064 56.228C24.4704 56.124 23.6038 55.9507 22.8064 55.708C21.2811 57.1987 19.7384 58.3947 18.1784 59.296C16.6531 60.232 15.1798 60.7693 13.7584 60.908ZM22.3904 54.876C24.0544 53.1427 25.6664 51.1147 27.2264 48.792C28.8211 46.4693 30.3118 44.0427 31.6984 41.512C31.2478 41.6507 30.7798 41.8067 30.2944 41.98C29.8091 42.1533 29.3411 42.3613 28.8904 42.604C28.3011 42.8813 27.5038 43.28 26.4984 43.8C25.4931 44.32 24.4878 44.8747 23.4824 45.464C22.5118 46.0187 21.7664 46.5213 21.2464 46.972C20.5531 47.596 20.0504 48.2027 19.7384 48.792C19.4264 49.3813 19.2704 49.9533 19.2704 50.508C19.2704 50.9933 19.3571 51.4613 19.5304 51.912C19.7384 52.3627 19.9811 52.796 20.2584 53.212C20.4318 53.42 20.7438 53.6973 21.1944 54.044C21.6798 54.4253 22.0784 54.7027 22.3904 54.876Z" fill="white"/>
</g>
<defs>
<linearGradient id="paint0_linear_1686_175" x1="0" y1="37.5" x2="75" y2="37.5" gradientUnits="userSpaceOnUse">
<stop stop-color="#614385"/>
<stop offset="1" stop-color="#516395"/>
</linearGradient>
</defs>
</svg>
